:FULLY-SPECIFIED
:FORCE-ALL-JOINTS-BE-3DOF
:DEGREES
49
root 8.46777 15.7914 -29.7321 7.30073 -9.52173 -5.5679
lfemur -40.9252 8.06943 -14.3771
ltibia 34.5743 -0 0
lfoot -0.236797 7.37915 -0.0419606
ltoes -2.92833 0 0
rfemur 20.1838 5.83262 26.1146
rtibia 6.62795 -0 0
rfoot -4.37788 -0.656357 0.177021
rtoes -27.9947 0 0
lowerback -8.45334 1.00193 1.90052
upperback -1.24008 0.999762 3.95126
thorax 3.43489 0.497381 3.16553
lowerneck -21.5123 -4.55374 -12.3205
upperneck 16.4365 -5.49363 14.2402
head 9.50402 -1.81494 6.27719
lclavicle -2.00524e-14 3.18055e-15 0
lhumerus -42.5724 -7.89595 91.5667
lradius 23.2079 -0 0
lwrist -0.499821 0 0
lhand 5.81376 -17.7607 0.0379038
lfingers 7.12502 -0 0
lthumb 31.1412 9.57259 0.0233995
rclavicle -2.00524e-14 3.18055e-15 0
rhumerus -45.9299 19.2812 -93.899
rradius 54.1783 -0 0
rwrist -26.1203 0 0
rhand -30.7024 -33.6508 0.0102927
rfingers 7.12502 -0 0
rthumb -3.99585 -63.5938 0.0100101
50
root 8.49294 15.8088 -29.6023 7.21736 -9.58408 -5.38164
lfemur -40.4011 7.88975 -14.6722
ltibia 34.4318 -0 0
lfoot -0.543721 7.4545 -0.05099
ltoes -2.80792 0 0
rfemur 19.2803 5.7464 25.8747
rtibia 8.05312 -0 0
rfoot -4.70241 -0.962994 0.203402
rtoes -27.6774 0 0
lowerback -8.37957 0.954101 1.76777
upperback -1.24685 0.952021 3.92509
thorax 3.38927 0.472688 3.20992
lowerneck -21.5599 -4.53066 -12.2927
upperneck 16.5323 -5.45865 14.1685
head 9.53735 -1.80228 6.25507
lclavicle -2.00524e-14 3.18055e-15 0
lhumerus -42.2096 -8.02545 91.4682
lradius 23.2299 -0 0
lwrist -0.511798 0 0
lhand 5.51907 -17.8596 0.0496081
lfingers 7.12502 -0 0
lthumb 30.8588 9.51257 0.0301935
rclavicle -2.00524e-14 3.18055e-15 0
rhumerus -45.9033 19.1736 -93.8469
rradius 53.8265 -0 0
rwrist -26.0062 0 0
rhand -30.6913 -33.4278 0.0107698
rfingers 7.12502 -0 0
rthumb -3.98507 -63.3711 0.0104771
51
root 8.51811 15.8263 -29.4726 7.12905 -9.63961 -5.18382
lfemur -39.8515 7.7023 -14.9867
ltibia 34.2937 -0 0
lfoot -0.881413 7.53567 -0.060218
ltoes -2.68977 0 0
rfemur 18.3009 5.64775 25.6285
rtibia 9.57409 -0 0
rfoot -5.03902 -1.28517 0.229092
rtoes -27.3139 0 0
lowerback -8.29725 0.903306 1.62727
upperback -1.25426 0.901216 3.89617
thorax 3.33835 0.446495 3.25553
lowerneck -21.6074 -4.50687 -12.2644
upperneck 16.6301 -5.42278 14.0959
head 9.57128 -1.78932 6.23273
lclavicle -2.00524e-14 3.18055e-15 0
lhumerus -41.8203 -8.15521 91.357
lradius 23.2562 -0 0
lwrist -0.517232 0 0
lhand 5.18952 -17.9689 0.0621486
lfingers 7.12502 -0 0
lthumb 30.5429 9.44643 0.0374368
rclavicle -2.00524e-14 3.18055e-15 0
rhumerus -45.8678 19.0597 -93.7825
rradius 53.4588 -0 0
rwrist -25.889 0 0
rhand -30.6822 -33.1851 0.01104
rfingers 7.12502 -0 0
rthumb -3.97627 -63.1286 0.0107433
52
root 8.54328 15.8437 -29.3429 7.03617 -9.68821 -4.97522
lfemur -39.2773 7.50819 -15.3194
ltibia 34.1592 -0 0
lfoot -1.24778 7.62202 -0.0694575
ltoes -2.57403 0 0
rfemur 17.2505 5.53706 25.3773
rtibia 11.1829 -0 0
rfoot -5.38688 -1.62169 0.253797
rtoes -26.9076 0 0
lowerback -8.20704 0.849764 1.47952
upperback -1.26226 0.847494 3.86467
thorax 3.28255 0.418883 3.30226
lowerneck -21.6545 -4.48248 -12.2356
upperneck 16.7298 -5.38614 14.0225
head 9.60573 -1.77613 6.21019
lclavicle -2.00524e-14 3.18055e-15 0
lhumerus -41.4062 -8.28517 91.234
lradius 23.2867 -0 0
lwrist -0.51626 0 0
lhand 4.82739 -18.088 0.0752574
lfingers 7.12502 -0 0
lthumb 30.1958 9.37456 0.0449795
rclavicle -2.00524e-14 3.18055e-15 0
rhumerus -45.824 18.9398 -93.7066
rradius 53.0764 -0 0
rwrist -25.7688 0 0
rhand -30.675 -32.924 0.0111224
rfingers 7.12502 -0 0
rthumb -3.96931 -62.8677 0.0108271
53
root 8.56845 15.8612 -29.2131 6.93912 -9.7298 -4.75662
lfemur -38.6796 7.30855 -15.6692
ltibia 34.0276 -0 0
lfoot -1.64075 7.7129 -0.0785277
ltoes -2.46084 0 0
rfemur 16.1343 5.41477 25.1219
rtibia 12.8717 -0 0
rfoot -5.74515 -1.97137 0.277234
rtoes -26.4617 0 0
lowerback -8.10955 0.793686 1.32501
upperback -1.2708 0.791 3.83078
thorax 3.2223 0.389932 3.35002
lowerneck -21.7013 -4.45759 -12.2064
upperneck 16.8312 -5.34885 13.9484
head 9.64065 -1.76276 6.18748
lclavicle -2.00524e-14 3.18055e-15 0
lhumerus -40.9693 -8.41527 91.1001
lradius 23.3217 -0 0
lwrist -0.50902 0 0
lhand 4.43497 -18.2163 0.0886671
lfingers 7.12502 -0 0
lthumb 29.8197 9.29731 0.0526717
rclavicle -2.00524e-14 3.18055e-15 0
rhumerus -45.7727 18.8141 -93.6197
rradius 52.6804 -0 0
rwrist -25.6458 0 0
rhand -30.6695 -32.6458 0.0110372
rfingers 7.12502 -0 0
rthumb -3.96408 -62.5897 0.0107483
54
root 8.59362 15.8786 -29.0834 6.83827 -9.76427 -4.52881
lfemur -38.0594 7.10446 -16.0348
ltibia 33.898 -0 0
lfoot -2.05821 7.80766 -0.0872566
ltoes -2.35034 0 0
rfemur 14.9572 5.2814 24.8634
rtibia 14.6325 -0 0
rfoot -6.11299 -2.33301 0.299142
rtoes -25.9795 0 0
lowerback -8.00543 0.735283 1.16424
upperback -1.2798 0.731881 3.79467
thorax 3.158 0.359722 3.39871
lowerneck -21.7475 -4.43229 -12.177
upperneck 16.9341 -5.31104 13.8737
head 9.67597 -1.74928 6.16465
lclavicle -2.00524e-14 3.18055e-15 0
lhumerus -40.5114 -8.54544 90.9563
lradius 23.3611 -0 0
lwrist -0.495649 0 0
lhand 4.01454 -18.353 0.102114
lfingers 7.12502 -0 0
lthumb 29.4167 9.21507 0.0603658
rclavicle -2.00524e-14 3.18055e-15 0
rhumerus -45.7144 18.6829 -93.5226
rradius 52.2719 -0 0
rwrist -25.5203 0 0
rhand -30.6658 -32.3521 0.0108054
rfingers 7.12502 -0 0
rthumb -3.96045 -62.296 0.010527
55
root 8.6188 15.8961 -28.9537 6.73404 -9.79154 -4.29259
lfemur -37.4177 6.897 -16.4151
ltibia 33.7695 -0 0
lfoot -2.49808 7.90566 -0.095483
ltoes -2.24267 0 0
rfemur 13.7242 5.13751 24.6027
rtibia 16.4573 -0 0
rfoot -6.48953 -2.70542 0.319276
rtoes -25.4642 0 0
lowerback -7.89531 0.674763 0.997718
upperback -1.28922 0.670283 3.7565
thorax 3.09008 0.328331 3.44822
lowerneck -21.7932 -4.40669 -12.1475
upperneck 17.0384 -5.27282 13.7985
head 9.71163 -1.73573 6.1417
lclavicle -2.00524e-14 3.18055e-15 0
lhumerus -40.0345 -8.67567 90.8037
lradius 23.4051 -0 0
lwrist -0.476286 0 0
lhand 3.56837 -18.4976 0.115343
lfingers 7.12502 -0 0
lthumb 28.9891 9.1282 0.0679185
rclavicle -2.00524e-14 3.18055e-15 0
rhumerus -45.6499 18.5464 -93.4159
rradius 51.852 -0 0
rwrist -25.3925 0 0
rhand -30.6636 -32.044 0.0104483
rfingers 7.12502 -0 0
rthumb -3.9583 -61.988 0.0101838
56
root 8.64397 15.9135 -28.8239 6.62681 -9.81153 -4.04873
lfemur -36.7556 6.68721 -16.8087
ltibia 33.6415 -0 0
lfoot -2.95827 8.00624 -0.103059
ltoes -2.13797 0 0
rfemur 12.4404 4.98375 24.3407
rtibia 18.3383 -0 0
rfoot -6.87393 -3.08738 0.337416
rtoes -24.9192 0 0
lowerback -7.77984 0.61233 0.82594
upperback -1.299 0.606351 3.71647
thorax 3.01897 0.295839 3.49847
lowerneck -21.8381 -4.38088 -12.1179
upperneck 17.1437 -5.23433 13.723
head 9.74756 -1.72218 6.11869
lclavicle -2.00524e-14 3.18055e-15 0
lhumerus -39.5405 -8.80592 90.6432
lradius 23.4537 -0 0
lwrist -0.451069 0 0
lhand 3.09876 -18.6494 0.128108
lfingers 7.12502 -0 0
lthumb 28.539 9.03709 0.0751924
rclavicle -2.00524e-14 3.18055e-15 0
rhumerus -45.5797 18.405 -93.3002
rradius 51.4218 -0 0
rwrist -25.2625 0 0
rhand -30.6627 -31.7231 0.00998689
rfingers 7.12502 -0 0
rthumb -3.95749 -61.6671 0.00973924
57
root 8.66914 15.931 -28.6942 6.51699 -9.82416 -3.79805
lfemur -36.074 6.47611 -17.2144
ltibia 33.513 -0 0
lfoot -3.43668 8.10875 -0.109851
ltoes -2.03637 0 0
rfemur 11.1107 4.82081 24.0783
rtibia 20.2675 -0 0
rfoot -7.26534 -3.4777 0.353361
rtoes -24.3475 0 0
lowerback -7.65966 0.548184 0.649412
upperback -1.30908 0.540233 3.67474
thorax 2.94507 0.262322 3.54936
lowerneck -21.8821 -4.35498 -12.0883
upperneck 17.2501 -5.19568 13.6472
head 9.78371 -1.70868 6.09562
lclavicle -2.00524e-14 3.18055e-15 0
lhumerus -39.0312 -8.9362 90.4759
lradius 23.5072 -0 0
lwrist -0.420135 0 0
lhand 2.608 -18.8077 0.140178
lfingers 7.12502 -0 0
lthumb 28.0686 8.94211 0.0820578
rclavicle -2.00524e-14 3.18055e-15 0
rhumerus -45.5047 18.2589 -93.1762
rradius 50.9825 -0 0
rwrist -25.1307 0 0
rhand -30.6632 -31.3907 0.00944203
rfingers 7.12502 -0 0
rthumb -3.95791 -61.3347 0.00921326
58
root 8.69431 15.9484 -28.5645 6.40499 -9.82936 -3.54134
lfemur -35.3741 6.26467 -17.6309
ltibia 33.3833 -0 0
lfoot -3.93122 8.21253 -0.115741
ltoes -1.93802 0 0
rfemur 9.74013 4.64947 23.8164
rtibia 22.237 -0 0
rfoot -7.66289 -3.87518 0.366939
rtoes -23.7526 0 0
lowerback -7.5354 0.482518 0.468638
upperback -1.3194 0.472074 3.63149
thorax 2.86883 0.227857 3.60078
lowerneck -21.9252 -4.32908 -12.059
upperneck 17.3571 -5.157 13.5714
head 9.82001 -1.6953 6.07255
lclavicle -2.00524e-14 3.18055e-15 0
lhumerus -38.5085 -9.06653 90.3026
lradius 23.5655 -0 0
lwrist -0.383622 0 0
lhand 2.09836 -18.9718 0.151336
lfingers 7.12502 -0 0
lthumb 27.5802 8.84364 0.0883939
rclavicle -2.00524e-14 3.18055e-15 0
rhumerus -45.4253 18.1083 -93.0445
rradius 50.5352 -0 0
rwrist -24.9971 0 0
rhand -30.6647 -31.0481 0.00883371
rfingers 7.12502 -0 0
rthumb -3.95942 -60.9921 0.0086253
59
root 8.71948 15.9659 -28.4347 6.29123 -9.82706 -3.2794
lfemur -34.657 6.05383 -18.057
ltibia 33.2516 -0 0
lfoot -4.43981 8.31693 -0.120632
ltoes -1.84305 0 0
rfemur 8.33361 4.47059 23.5558
rtibia 24.2388 -0 0
rfoot -8.06571 -4.27859 0.378001
rtoes -23.1377 0 0
lowerback -7.40772 0.415522 0.284125
upperback -1.32991 0.402022 3.5869
thorax 2.79065 0.192518 3.65264
lowerneck -21.9671 -4.30327 -12.0299
upperneck 17.4648 -5.11843 13.4955
head 9.85639 -1.68208 6.04948
lclavicle -2.00524e-14 3.18055e-15 0
lhumerus -37.9745 -9.19696 90.1245
lradius 23.6287 -0 0
lwrist -0.343759 0 0
lhand 1.57213 -19.1411 0.161388
lfingers 7.12502 -0 0
lthumb 27.0758 8.74207 0.0940908
rclavicle -2.00524e-14 3.18055e-15 0
rhumerus -45.3423 17.9535 -92.9058
rradius 50.081 -0 0
rwrist -24.8621 0 0
rhand -30.6673 -30.6968 0.00818098
rfingers 7.12502 -0 0
rthumb -3.96191 -60.6407 0.0079938
